<svg width="1971" height="816" viewBox="0 0 1971 816" fill="none" xmlns="http://www.w3.org/2000/svg">
<g opacity="0.4" clip-path="url(#clip0_2684_456)">
<path d="M1842.09 558C1770.73 558 1713 615.727 1713 687.089C1713 758.273 1770.73 816.177 1842.09 816.177C1913.27 816.177 1971.18 758.45 1971.18 687.089C1971 615.727 1913.27 558 1842.09 558ZM1842.09 807.855C1775.33 807.855 1721.32 753.846 1721.32 687.089C1721.32 620.331 1775.33 566.323 1842.09 566.323C1908.85 566.323 1962.85 620.331 1962.85 687.089C1962.85 753.669 1908.67 807.855 1842.09 807.855Z" fill="white"/>
<path d="M1842.09 585.801C1786.31 585.801 1740.98 631.132 1740.98 686.911C1740.98 742.69 1786.31 788.022 1842.09 788.022C1897.87 788.022 1943.2 742.867 1943.2 687.088C1943.2 631.132 1897.87 585.801 1842.09 585.801ZM1842.09 772.616C1794.81 772.616 1756.38 734.191 1756.38 686.911C1756.38 639.632 1794.81 601.206 1842.09 601.206C1889.37 601.206 1927.79 639.632 1927.79 686.911C1927.79 734.191 1889.37 772.616 1842.09 772.616Z" fill="white"/>
</g>
<g opacity="0.6" clip-path="url(#clip1_2684_456)">
<path d="M72.5498 0C32.4434 0 0 32.4434 0 72.5498C0 112.557 32.4434 145.1 72.5498 145.1C112.557 145.1 145.1 112.656 145.1 72.5498C145 32.4434 112.557 0 72.5498 0ZM72.5498 140.422C35.0309 140.422 4.67742 110.069 4.67742 72.5498C4.67742 35.0309 35.0309 4.67742 72.5498 4.67742C110.069 4.67742 140.422 35.0309 140.422 72.5498C140.422 109.969 109.969 140.422 72.5498 140.422Z" fill="white"/>
<path d="M72.5498 15.625C41.2011 15.625 15.7241 41.102 15.7241 72.4507C15.7241 103.799 41.2011 129.276 72.5498 129.276C103.898 129.276 129.375 103.899 129.375 72.5502C129.375 41.102 103.898 15.625 72.5498 15.625ZM72.5498 120.618C45.9781 120.618 24.3823 99.0224 24.3823 72.4507C24.3823 45.8789 45.9781 24.2832 72.5498 24.2832C99.1215 24.2832 120.717 45.8789 120.717 72.4507C120.717 99.0224 99.1215 120.618 72.5498 120.618Z" fill="white"/>
<path d="M72.5503 40.6035C54.9353 40.6035 40.6045 54.9343 40.6045 72.5493C40.6045 90.1642 54.8358 104.495 72.5503 104.495C90.1652 104.495 104.496 90.1642 104.496 72.5493C104.397 54.9343 90.1652 40.6035 72.5503 40.6035ZM72.5503 89.6666C63.0959 89.6666 55.4329 82.0036 55.4329 72.5493C55.4329 63.0949 63.0959 55.4319 72.5503 55.4319C82.0046 55.4319 89.6676 63.0949 89.6676 72.5493C89.6676 82.0036 82.0046 89.6666 72.5503 89.6666Z" fill="white"/>
</g>
<defs>
<clipPath id="clip0_2684_456">
<rect width="258" height="258" fill="white" transform="translate(1713 558)"/>
</clipPath>
<clipPath id="clip1_2684_456">
<rect width="145" height="145" fill="white"/>
</clipPath>
</defs>
</svg>
