<svg width="1994" height="1226" viewBox="0 0 1994 1226" fill="none" xmlns="http://www.w3.org/2000/svg">
<path opacity="0.3" d="M142.097 941C63.5443 941 0 1004.54 0 1083.1C0 1161.46 63.5443 1225.19 142.097 1225.19C220.456 1225.19 284.195 1161.65 284.195 1083.1C284 1004.54 220.456 941 142.097 941ZM142.097 1216.03C68.6122 1216.03 9.16129 1156.58 9.16129 1083.1C9.16129 1009.61 68.6122 950.161 142.097 950.161C215.583 950.161 275.034 1009.61 275.034 1083.1C275.034 1156.39 215.388 1216.03 142.097 1216.03Z" fill="white"/>
<path opacity="0.3" d="M142.099 971.603C80.6986 971.603 30.7988 1021.5 30.7988 1082.9C30.7988 1144.3 80.6986 1194.2 142.099 1194.2C203.499 1194.2 253.399 1144.5 253.399 1083.1C253.399 1021.5 203.499 971.603 142.099 971.603ZM142.099 1177.24C90.0548 1177.24 47.757 1134.95 47.757 1082.9C47.757 1030.86 90.0548 988.561 142.099 988.561C194.143 988.561 236.441 1030.86 236.441 1082.9C236.441 1134.95 194.143 1177.24 142.099 1177.24Z" fill="white"/>
<path opacity="0.3" d="M142.098 1020.53C107.597 1020.53 79.5283 1048.6 79.5283 1083.1C79.5283 1117.6 107.402 1145.67 142.098 1145.67C176.599 1145.67 204.668 1117.6 204.668 1083.1C204.473 1048.6 176.599 1020.53 142.098 1020.53ZM142.098 1116.62C123.58 1116.62 108.572 1101.61 108.572 1083.1C108.572 1064.58 123.58 1049.57 142.098 1049.57C160.616 1049.57 175.624 1064.58 175.624 1083.1C175.624 1101.61 160.616 1116.62 142.098 1116.62Z" fill="white"/>
<path d="M1880.34 834.264C1880.34 835.784 1879.19 836.923 1877.67 836.923C1876.14 836.923 1875 835.784 1875 834.264C1875 832.745 1876.14 831.605 1877.67 831.605C1879.19 831.605 1880.34 832.872 1880.34 834.264Z" fill="white"/>
<path d="M1903.08 834.264C1903.08 835.784 1901.93 836.923 1900.41 836.923C1898.88 836.923 1897.74 835.784 1897.74 834.264C1897.74 832.745 1898.88 831.605 1900.41 831.605C1901.81 831.605 1903.08 832.872 1903.08 834.264Z" fill="white"/>
<path d="M1925.69 834.264C1925.69 835.784 1924.54 836.923 1923.02 836.923C1921.5 836.923 1920.35 835.784 1920.35 834.264C1920.35 832.745 1921.5 831.605 1923.02 831.605C1924.54 831.605 1925.69 832.872 1925.69 834.264Z" fill="white"/>
<path d="M1948.43 834.264C1948.43 835.784 1947.28 836.923 1945.76 836.923C1944.24 836.923 1943.09 835.784 1943.09 834.264C1943.09 832.745 1944.24 831.605 1945.76 831.605C1947.28 831.605 1948.43 832.872 1948.43 834.264Z" fill="white"/>
<path d="M1971.17 834.264C1971.17 835.784 1970.02 836.923 1968.5 836.923C1966.98 836.923 1965.83 835.784 1965.83 834.264C1965.83 832.745 1966.98 831.605 1968.5 831.605C1969.9 831.605 1971.17 832.872 1971.17 834.264Z" fill="white"/>
<path d="M1993.91 834.264C1993.91 835.784 1992.76 836.923 1991.24 836.923C1989.72 836.923 1988.57 835.784 1988.57 834.264C1988.57 832.745 1989.72 831.605 1991.24 831.605C1992.76 831.605 1993.91 832.872 1993.91 834.264Z" fill="white"/>
<path d="M1819.52 834.263C1819.52 835.783 1818.38 836.922 1816.85 836.922C1815.33 836.922 1814.18 835.783 1814.18 834.263C1814.18 832.744 1815.33 831.604 1816.85 831.604C1818.38 831.604 1819.52 832.871 1819.52 834.263Z" fill="white"/>
<path d="M1842.26 834.263C1842.26 835.783 1841.12 836.922 1839.59 836.922C1838.07 836.922 1836.92 835.783 1836.92 834.263C1836.92 832.744 1838.07 831.604 1839.59 831.604C1841.12 831.604 1842.26 832.871 1842.26 834.263Z" fill="white"/>
<path d="M1865 834.263C1865 835.783 1863.86 836.922 1862.33 836.922C1860.81 836.922 1859.66 835.783 1859.66 834.263C1859.66 832.744 1860.81 831.604 1862.33 831.604C1863.73 831.604 1865 832.871 1865 834.263Z" fill="white"/>
<path d="M1880.34 853.131C1880.34 854.65 1879.19 855.79 1877.67 855.79C1876.14 855.79 1875 854.65 1875 853.131C1875 851.611 1876.14 850.472 1877.67 850.472C1879.19 850.472 1880.34 851.611 1880.34 853.131Z" fill="white"/>
<path d="M1903.08 853.131C1903.08 854.65 1901.93 855.79 1900.41 855.79C1898.88 855.79 1897.74 854.65 1897.74 853.131C1897.74 851.611 1898.88 850.472 1900.41 850.472C1901.81 850.472 1903.08 851.611 1903.08 853.131Z" fill="white"/>
<path d="M1925.69 853.131C1925.69 854.65 1924.54 855.79 1923.02 855.79C1921.5 855.79 1920.35 854.65 1920.35 853.131C1920.35 851.611 1921.5 850.472 1923.02 850.472C1924.54 850.472 1925.69 851.611 1925.69 853.131Z" fill="white"/>
<path d="M1948.43 853.131C1948.43 854.65 1947.28 855.79 1945.76 855.79C1944.24 855.79 1943.09 854.65 1943.09 853.131C1943.09 851.611 1944.24 850.472 1945.76 850.472C1947.28 850.472 1948.43 851.611 1948.43 853.131Z" fill="white"/>
<path d="M1971.17 853.131C1971.17 854.65 1970.02 855.79 1968.5 855.79C1966.98 855.79 1965.83 854.65 1965.83 853.131C1965.83 851.611 1966.98 850.472 1968.5 850.472C1969.9 850.472 1971.17 851.611 1971.17 853.131Z" fill="white"/>
<path d="M1993.91 853.131C1993.91 854.65 1992.76 855.79 1991.24 855.79C1989.72 855.79 1988.57 854.65 1988.57 853.131C1988.57 851.611 1989.72 850.472 1991.24 850.472C1992.76 850.472 1993.91 851.611 1993.91 853.131Z" fill="white"/>
<path d="M1819.52 853.13C1819.52 854.649 1818.38 855.789 1816.85 855.789C1815.33 855.789 1814.18 854.649 1814.18 853.13C1814.18 851.61 1815.33 850.471 1816.85 850.471C1818.38 850.471 1819.52 851.61 1819.52 853.13Z" fill="white"/>
<path d="M1842.26 853.13C1842.26 854.649 1841.12 855.789 1839.59 855.789C1838.07 855.789 1836.92 854.649 1836.92 853.13C1836.92 851.61 1838.07 850.471 1839.59 850.471C1841.12 850.471 1842.26 851.61 1842.26 853.13Z" fill="white"/>
<path d="M1865 853.13C1865 854.649 1863.86 855.789 1862.33 855.789C1860.81 855.789 1859.66 854.649 1859.66 853.13C1859.66 851.61 1860.81 850.471 1862.33 850.471C1863.73 850.471 1865 851.61 1865 853.13Z" fill="white"/>
<path d="M1880.34 796.659C1880.34 798.178 1879.19 799.318 1877.67 799.318C1876.14 799.318 1875 798.178 1875 796.659C1875 795.14 1876.14 794 1877.67 794C1879.19 794 1880.34 795.14 1880.34 796.659Z" fill="white"/>
<path d="M1903.08 796.659C1903.08 798.178 1901.93 799.318 1900.41 799.318C1898.88 799.318 1897.74 798.178 1897.74 796.659C1897.74 795.14 1898.88 794 1900.41 794C1901.81 794 1903.08 795.14 1903.08 796.659Z" fill="white"/>
<path d="M1925.69 796.659C1925.69 798.178 1924.54 799.318 1923.02 799.318C1921.5 799.318 1920.35 798.178 1920.35 796.659C1920.35 795.14 1921.62 794 1923.02 794C1924.54 794 1925.69 795.14 1925.69 796.659Z" fill="white"/>
<path d="M1948.43 796.659C1948.43 798.178 1947.28 799.318 1945.76 799.318C1944.24 799.318 1943.09 798.178 1943.09 796.659C1943.09 795.14 1944.36 794 1945.76 794C1947.16 794 1948.43 795.14 1948.43 796.659Z" fill="white"/>
<path d="M1971.17 796.659C1971.17 798.178 1970.02 799.318 1968.5 799.318C1966.98 799.318 1965.83 798.178 1965.83 796.659C1965.83 795.14 1966.98 794 1968.5 794C1969.9 794 1971.17 795.14 1971.17 796.659Z" fill="white"/>
<path d="M1993.91 796.659C1993.91 798.178 1992.76 799.318 1991.24 799.318C1989.72 799.318 1988.57 798.178 1988.57 796.659C1988.57 795.14 1989.72 794 1991.24 794C1992.76 794 1993.91 795.14 1993.91 796.659Z" fill="white"/>
<path d="M1819.52 796.658C1819.52 798.177 1818.38 799.317 1816.85 799.317C1815.33 799.317 1814.18 798.177 1814.18 796.658C1814.18 795.139 1815.33 793.999 1816.85 793.999C1818.38 793.999 1819.52 795.139 1819.52 796.658Z" fill="white"/>
<path d="M1842.26 796.658C1842.26 798.177 1841.12 799.317 1839.59 799.317C1838.07 799.317 1836.92 798.177 1836.92 796.658C1836.92 795.139 1838.07 793.999 1839.59 793.999C1841.12 793.999 1842.26 795.139 1842.26 796.658Z" fill="white"/>
<path d="M1865 796.658C1865 798.177 1863.86 799.317 1862.33 799.317C1860.81 799.317 1859.66 798.177 1859.66 796.658C1859.66 795.139 1860.81 793.999 1862.33 793.999C1863.73 793.999 1865 795.139 1865 796.658Z" fill="white"/>
<path d="M1880.34 815.525C1880.34 817.045 1879.19 818.184 1877.67 818.184C1876.14 818.184 1875 816.918 1875 815.525C1875 814.006 1876.14 812.866 1877.67 812.866C1879.19 812.866 1880.34 814.006 1880.34 815.525Z" fill="white"/>
<path d="M1903.08 815.525C1903.08 817.045 1901.93 818.184 1900.41 818.184C1898.88 818.184 1897.74 817.045 1897.74 815.525C1897.74 814.006 1898.88 812.866 1900.41 812.866C1901.81 812.866 1903.08 814.006 1903.08 815.525Z" fill="white"/>
<path d="M1925.69 815.525C1925.69 817.045 1924.54 818.184 1923.02 818.184C1921.5 818.184 1920.35 817.045 1920.35 815.525C1920.35 814.006 1921.5 812.866 1923.02 812.866C1924.54 812.866 1925.69 814.006 1925.69 815.525Z" fill="white"/>
<path d="M1948.43 815.525C1948.43 817.045 1947.28 818.184 1945.76 818.184C1944.24 818.184 1943.09 817.045 1943.09 815.525C1943.09 814.006 1944.24 812.866 1945.76 812.866C1947.28 812.866 1948.43 814.006 1948.43 815.525Z" fill="white"/>
<path d="M1971.17 815.525C1971.17 817.045 1970.02 818.184 1968.5 818.184C1966.98 818.184 1965.83 817.045 1965.83 815.525C1965.83 814.006 1966.98 812.866 1968.5 812.866C1969.9 812.866 1971.17 814.006 1971.17 815.525Z" fill="white"/>
<path d="M1993.91 815.525C1993.91 817.045 1992.76 818.184 1991.24 818.184C1989.72 818.184 1988.57 817.045 1988.57 815.525C1988.57 814.006 1989.72 812.866 1991.24 812.866C1992.76 812.866 1993.91 814.006 1993.91 815.525Z" fill="white"/>
<path d="M1819.52 815.524C1819.52 817.044 1818.38 818.183 1816.85 818.183C1815.33 818.183 1814.18 817.044 1814.18 815.524C1814.18 814.005 1815.33 812.865 1816.85 812.865C1818.38 812.865 1819.52 814.005 1819.52 815.524Z" fill="white"/>
<path d="M1842.26 815.524C1842.26 817.044 1841.12 818.183 1839.59 818.183C1838.07 818.183 1836.92 817.044 1836.92 815.524C1836.92 814.005 1838.07 812.865 1839.59 812.865C1841.12 812.865 1842.26 814.005 1842.26 815.524Z" fill="white"/>
<path d="M1865 815.524C1865 817.044 1863.86 818.183 1862.33 818.183C1860.81 818.183 1859.66 817.044 1859.66 815.524C1859.66 814.005 1860.81 812.865 1862.33 812.865C1863.73 812.865 1865 814.005 1865 815.524Z" fill="white"/>
<path d="M1880.34 871.87C1880.34 873.389 1879.19 874.529 1877.67 874.529C1876.14 874.529 1875 873.389 1875 871.87C1875 870.35 1876.14 869.211 1877.67 869.211C1879.19 869.211 1880.34 870.477 1880.34 871.87Z" fill="white"/>
<path d="M1903.08 871.87C1903.08 873.389 1901.93 874.529 1900.41 874.529C1898.88 874.529 1897.74 873.389 1897.74 871.87C1897.74 870.35 1898.88 869.211 1900.41 869.211C1901.81 869.211 1903.08 870.477 1903.08 871.87Z" fill="white"/>
<path d="M1925.69 871.87C1925.69 873.389 1924.54 874.529 1923.02 874.529C1921.5 874.529 1920.35 873.389 1920.35 871.87C1920.35 870.35 1921.5 869.211 1923.02 869.211C1924.54 869.211 1925.69 870.477 1925.69 871.87Z" fill="white"/>
<path d="M1948.43 871.87C1948.43 873.389 1947.28 874.529 1945.76 874.529C1944.24 874.529 1943.09 873.389 1943.09 871.87C1943.09 870.35 1944.24 869.211 1945.76 869.211C1947.28 869.211 1948.43 870.477 1948.43 871.87Z" fill="white"/>
<path d="M1971.17 871.87C1971.17 873.389 1970.02 874.529 1968.5 874.529C1966.98 874.529 1965.83 873.389 1965.83 871.87C1965.83 870.35 1966.98 869.211 1968.5 869.211C1969.9 869.211 1971.17 870.477 1971.17 871.87Z" fill="white"/>
<path d="M1993.91 871.87C1993.91 873.389 1992.76 874.529 1991.24 874.529C1989.72 874.529 1988.57 873.389 1988.57 871.87C1988.57 870.35 1989.72 869.211 1991.24 869.211C1992.76 869.211 1993.91 870.477 1993.91 871.87Z" fill="white"/>
<path d="M1819.52 871.869C1819.52 873.388 1818.38 874.528 1816.85 874.528C1815.33 874.528 1814.18 873.388 1814.18 871.869C1814.18 870.35 1815.33 869.21 1816.85 869.21C1818.38 869.21 1819.52 870.476 1819.52 871.869Z" fill="white"/>
<path d="M1842.26 871.869C1842.26 873.388 1841.12 874.528 1839.59 874.528C1838.07 874.528 1836.92 873.388 1836.92 871.869C1836.92 870.35 1838.07 869.21 1839.59 869.21C1841.12 869.21 1842.26 870.476 1842.26 871.869Z" fill="white"/>
<path d="M1865 871.869C1865 873.388 1863.86 874.528 1862.33 874.528C1860.81 874.528 1859.66 873.388 1859.66 871.869C1859.66 870.35 1860.81 869.21 1862.33 869.21C1863.73 869.21 1865 870.476 1865 871.869Z" fill="white"/>
<path d="M1880.34 890.736C1880.34 892.256 1879.19 893.395 1877.67 893.395C1876.14 893.395 1875 892.256 1875 890.736C1875 889.217 1876.14 888.077 1877.67 888.077C1879.19 888.077 1880.34 889.217 1880.34 890.736Z" fill="white"/>
<path d="M1903.08 890.736C1903.08 892.256 1901.93 893.395 1900.41 893.395C1898.88 893.395 1897.74 892.256 1897.74 890.736C1897.74 889.217 1898.88 888.077 1900.41 888.077C1901.81 888.077 1903.08 889.217 1903.08 890.736Z" fill="white"/>
<path d="M1925.69 890.736C1925.69 892.256 1924.54 893.395 1923.02 893.395C1921.5 893.395 1920.35 892.256 1920.35 890.736C1920.35 889.217 1921.5 888.077 1923.02 888.077C1924.54 888.077 1925.69 889.217 1925.69 890.736Z" fill="white"/>
<path d="M1945.76 893.395C1947.23 893.395 1948.43 892.205 1948.43 890.736C1948.43 889.268 1947.23 888.077 1945.76 888.077C1944.29 888.077 1943.09 889.268 1943.09 890.736C1943.09 892.205 1944.29 893.395 1945.76 893.395Z" fill="white"/>
<path d="M1971.17 890.736C1971.17 892.256 1970.02 893.395 1968.5 893.395C1966.98 893.395 1965.83 892.256 1965.83 890.736C1965.83 889.217 1966.98 888.077 1968.5 888.077C1969.9 888.077 1971.17 889.217 1971.17 890.736Z" fill="white"/>
<path d="M1993.91 890.736C1993.91 892.256 1992.76 893.395 1991.24 893.395C1989.72 893.395 1988.57 892.256 1988.57 890.736C1988.57 889.217 1989.72 888.077 1991.24 888.077C1992.76 888.077 1993.91 889.217 1993.91 890.736Z" fill="white"/>
<path d="M1819.52 890.735C1819.52 892.255 1818.38 893.394 1816.85 893.394C1815.33 893.394 1814.18 892.255 1814.18 890.735C1814.18 889.216 1815.33 888.076 1816.85 888.076C1818.38 888.076 1819.52 889.216 1819.52 890.735Z" fill="white"/>
<path d="M1839.59 893.394C1841.07 893.394 1842.26 892.204 1842.26 890.735C1842.26 889.267 1841.07 888.076 1839.59 888.076C1838.12 888.076 1836.92 889.267 1836.92 890.735C1836.92 892.204 1838.12 893.394 1839.59 893.394Z" fill="white"/>
<path d="M1865 890.735C1865 892.255 1863.86 893.394 1862.33 893.394C1860.81 893.394 1859.66 892.255 1859.66 890.735C1859.66 889.216 1860.81 888.076 1862.33 888.076C1863.73 888.076 1865 889.216 1865 890.735Z" fill="white"/>
<path d="M1880.34 909.601C1880.34 911.121 1879.19 912.26 1877.67 912.26C1876.14 912.26 1875 911.121 1875 909.601C1875 908.082 1876.14 906.942 1877.67 906.942C1879.19 906.942 1880.34 908.082 1880.34 909.601Z" fill="white"/>
<path d="M1903.08 909.601C1903.08 911.121 1901.93 912.26 1900.41 912.26C1898.88 912.26 1897.74 911.121 1897.74 909.601C1897.74 908.082 1898.88 906.942 1900.41 906.942C1901.81 906.942 1903.08 908.082 1903.08 909.601Z" fill="white"/>
<path d="M1925.69 909.601C1925.69 911.121 1924.54 912.26 1923.02 912.26C1921.5 912.26 1920.35 911.121 1920.35 909.601C1920.35 908.082 1921.5 906.942 1923.02 906.942C1924.54 906.942 1925.69 908.082 1925.69 909.601Z" fill="white"/>
<path d="M1948.43 909.601C1948.43 911.121 1947.28 912.26 1945.76 912.26C1944.24 912.26 1943.09 911.121 1943.09 909.601C1943.09 908.082 1944.24 906.942 1945.76 906.942C1947.28 906.942 1948.43 908.082 1948.43 909.601Z" fill="white"/>
<path d="M1971.17 909.601C1971.17 911.121 1970.02 912.26 1968.5 912.26C1966.98 912.26 1965.83 911.121 1965.83 909.601C1965.83 908.082 1966.98 906.942 1968.5 906.942C1969.9 906.942 1971.17 908.082 1971.17 909.601Z" fill="white"/>
<path d="M1993.91 909.601C1993.91 911.121 1992.76 912.26 1991.24 912.26C1989.72 912.26 1988.57 911.121 1988.57 909.601C1988.57 908.082 1989.72 906.942 1991.24 906.942C1992.76 906.942 1993.91 908.082 1993.91 909.601Z" fill="white"/>
<path d="M1819.52 909.6C1819.52 911.12 1818.38 912.259 1816.85 912.259C1815.33 912.259 1814.18 911.12 1814.18 909.6C1814.18 908.081 1815.33 906.941 1816.85 906.941C1818.38 906.941 1819.52 908.081 1819.52 909.6Z" fill="white"/>
<path d="M1842.26 909.6C1842.26 911.12 1841.12 912.259 1839.59 912.259C1838.07 912.259 1836.92 911.12 1836.92 909.6C1836.92 908.081 1838.07 906.941 1839.59 906.941C1841.12 906.941 1842.26 908.081 1842.26 909.6Z" fill="white"/>
<path d="M1865 909.6C1865 911.12 1863.86 912.259 1862.33 912.259C1860.81 912.259 1859.66 911.12 1859.66 909.6C1859.66 908.081 1860.81 906.941 1862.33 906.941C1863.73 906.941 1865 908.081 1865 909.6Z" fill="white"/>
<path d="M1880.34 928.341C1880.34 929.86 1879.19 931 1877.67 931C1876.14 931 1875 929.86 1875 928.341C1875 926.821 1876.14 925.682 1877.67 925.682C1879.19 925.682 1880.34 926.948 1880.34 928.341Z" fill="white"/>
<path d="M1903.08 928.341C1903.08 929.86 1901.93 931 1900.41 931C1898.88 931 1897.74 929.86 1897.74 928.341C1897.74 926.821 1898.88 925.682 1900.41 925.682C1901.81 925.682 1903.08 926.948 1903.08 928.341Z" fill="white"/>
<path d="M1925.69 928.341C1925.69 929.86 1924.54 931 1923.02 931C1921.5 931 1920.35 929.86 1920.35 928.341C1920.35 926.821 1921.5 925.682 1923.02 925.682C1924.54 925.682 1925.69 926.948 1925.69 928.341Z" fill="white"/>
<path d="M1948.43 928.341C1948.43 929.86 1947.28 931 1945.76 931C1944.24 931 1943.09 929.86 1943.09 928.341C1943.09 926.821 1944.24 925.682 1945.76 925.682C1947.28 925.682 1948.43 926.948 1948.43 928.341Z" fill="white"/>
<path d="M1971.17 928.341C1971.17 929.86 1970.02 931 1968.5 931C1966.98 931 1965.83 929.86 1965.83 928.341C1965.83 926.821 1966.98 925.682 1968.5 925.682C1969.9 925.682 1971.17 926.948 1971.17 928.341Z" fill="white"/>
<path d="M1993.91 928.341C1993.91 929.86 1992.76 931 1991.24 931C1989.72 931 1988.57 929.86 1988.57 928.341C1988.57 926.821 1989.72 925.682 1991.24 925.682C1992.76 925.682 1993.91 926.948 1993.91 928.341Z" fill="white"/>
<path d="M1819.52 928.34C1819.52 929.859 1818.38 930.999 1816.85 930.999C1815.33 930.999 1814.18 929.859 1814.18 928.34C1814.18 926.82 1815.33 925.681 1816.85 925.681C1818.38 925.681 1819.52 926.947 1819.52 928.34Z" fill="white"/>
<path d="M1842.26 928.34C1842.26 929.859 1841.12 930.999 1839.59 930.999C1838.07 930.999 1836.92 929.859 1836.92 928.34C1836.92 926.82 1838.07 925.681 1839.59 925.681C1841.12 925.681 1842.26 926.947 1842.26 928.34Z" fill="white"/>
<path d="M1865 928.34C1865 929.859 1863.86 930.999 1862.33 930.999C1860.81 930.999 1859.66 929.859 1859.66 928.34C1859.66 926.82 1860.81 925.681 1862.33 925.681C1863.73 925.681 1865 926.947 1865 928.34Z" fill="white"/>
<path opacity="0.3" d="M1873.81 120.222L1883.47 129.881L1857.78 155.564L1832.1 129.881L1841.68 120.295L1857.71 136.32L1873.81 120.222Z" fill="white"/>
<path opacity="0.3" d="M1873.81 85.5395L1883.39 95.1251L1857.71 120.808L1832.1 95.1982L1841.76 85.5395L1857.78 101.564L1873.81 85.5395Z" fill="white"/>
<path opacity="0.3" d="M1873.73 50.7826L1883.39 60.4413L1857.78 86.0516L1832.1 60.3682L1841.68 50.7826L1857.71 66.8073L1873.73 50.7826Z" fill="white"/>
<path opacity="0.3" d="M1873.81 16.0249L1883.47 25.6836L1857.78 51.367L1832.1 25.6836L1841.76 16.0249L1857.78 32.0496L1873.81 16.0249Z" fill="white"/>
<path opacity="0.3" d="M906 853.553C892.071 867.482 869.377 867.482 855.447 853.553C841.518 839.623 841.518 816.929 855.447 803L906 853.553Z" fill="white"/>
<path opacity="0.3" d="M960.486 574.89C971.205 574.89 979.937 566.165 979.937 555.453C979.937 544.742 971.205 536.017 960.486 536.017L960.486 574.89Z" fill="white"/>
<path opacity="0.3" d="M930.141 574.89C940.861 574.89 949.592 566.165 949.592 555.453C949.592 544.742 940.861 536.017 930.141 536.017L930.141 574.89Z" fill="white"/>
<path opacity="0.3" d="M899.797 574.89C910.516 574.89 919.248 566.165 919.248 555.453C919.248 544.742 910.516 536.017 899.797 536.017V574.89Z" fill="white"/>
<g opacity="0.3">
<path d="M258.301 189.921L258.301 178L290 178L290 209.699L278.169 209.699L278.169 189.921L258.301 189.921Z" fill="white"/>
<path d="M236.899 211.325L236.899 199.494L268.598 199.494L268.598 231.103L256.677 231.103L256.677 211.325L236.899 211.325Z" fill="white"/>
<path d="M215.495 232.819L215.495 220.898L247.104 220.898L247.104 252.597L235.273 252.597L235.273 232.819L215.495 232.819Z" fill="white"/>
<path d="M194.001 254.222L194.001 242.301L225.7 242.301L225.7 274L213.779 274L213.779 254.222L194.001 254.222Z" fill="white"/>
</g>
</svg>
