<svg width="1962" height="727" viewBox="0 0 1962 727" fill="none" xmlns="http://www.w3.org/2000/svg">
<g opacity="0.3">
<path d="M272.08 30.8602C272.08 32.0247 271.206 32.8981 270.04 32.8981C268.874 32.8981 268 32.0247 268 30.8602C268 29.6956 268.874 28.8223 270.04 28.8223C271.206 28.8223 272.08 29.7927 272.08 30.8602Z" fill="white"/>
<path d="M289.47 30.8602C289.47 32.0247 288.595 32.8981 287.43 32.8981C286.264 32.8981 285.39 32.0247 285.39 30.8602C285.39 29.6956 286.264 28.8223 287.43 28.8223C288.498 28.8223 289.47 29.7927 289.47 30.8602Z" fill="white"/>
<path d="M306.762 30.8602C306.762 32.0247 305.887 32.8981 304.722 32.8981C303.556 32.8981 302.682 32.0247 302.682 30.8602C302.682 29.6956 303.556 28.8223 304.722 28.8223C305.887 28.8223 306.762 29.7927 306.762 30.8602Z" fill="white"/>
<path d="M324.15 30.8602C324.15 32.0247 323.276 32.8981 322.11 32.8981C320.945 32.8981 320.07 32.0247 320.07 30.8602C320.07 29.6956 320.945 28.8223 322.11 28.8223C323.276 28.8223 324.15 29.7927 324.15 30.8602Z" fill="white"/>
<path d="M341.54 30.8602C341.54 32.0247 340.666 32.8981 339.5 32.8981C338.334 32.8981 337.46 32.0247 337.46 30.8602C337.46 29.6956 338.334 28.8223 339.5 28.8223C340.569 28.8223 341.54 29.7927 341.54 30.8602Z" fill="white"/>
<path d="M358.93 30.8602C358.93 32.0247 358.055 32.8981 356.89 32.8981C355.724 32.8981 354.85 32.0247 354.85 30.8602C354.85 29.6956 355.724 28.8223 356.89 28.8223C358.055 28.8223 358.93 29.7927 358.93 30.8602Z" fill="white"/>
<path d="M376.222 30.8602C376.222 32.0247 375.347 32.8981 374.182 32.8981C373.016 32.8981 372.142 32.0247 372.142 30.8602C372.142 29.6956 373.016 28.8223 374.182 28.8223C375.347 28.8223 376.222 29.7927 376.222 30.8602Z" fill="white"/>
<path d="M393.61 30.8602C393.61 32.0247 392.736 32.8981 391.57 32.8981C390.405 32.8981 389.53 32.0247 389.53 30.8602C389.53 29.6956 390.405 28.8223 391.57 28.8223C392.736 28.8223 393.61 29.7927 393.61 30.8602Z" fill="white"/>
<path d="M411 30.8602C411 32.0247 410.126 32.8981 408.96 32.8981C407.794 32.8981 406.92 32.0247 406.92 30.8602C406.92 29.6956 407.794 28.8223 408.96 28.8223C410.029 28.8223 411 29.7927 411 30.8602Z" fill="white"/>
<path d="M272.08 45.3191C272.08 46.4837 271.206 47.357 270.04 47.357C268.874 47.357 268 46.4837 268 45.3191C268 44.1546 268.874 43.2812 270.04 43.2812C271.206 43.2812 272.08 44.1546 272.08 45.3191Z" fill="white"/>
<path d="M289.47 45.3191C289.47 46.4837 288.595 47.357 287.43 47.357C286.264 47.357 285.39 46.4837 285.39 45.3191C285.39 44.1546 286.264 43.2812 287.43 43.2812C288.498 43.2812 289.47 44.1546 289.47 45.3191Z" fill="white"/>
<path d="M306.762 45.3191C306.762 46.4837 305.887 47.357 304.722 47.357C303.556 47.357 302.682 46.4837 302.682 45.3191C302.682 44.1546 303.556 43.2812 304.722 43.2812C305.887 43.2812 306.762 44.1546 306.762 45.3191Z" fill="white"/>
<path d="M324.15 45.3191C324.15 46.4837 323.276 47.357 322.11 47.357C320.945 47.357 320.07 46.4837 320.07 45.3191C320.07 44.1546 320.945 43.2812 322.11 43.2812C323.276 43.2812 324.15 44.1546 324.15 45.3191Z" fill="white"/>
<path d="M341.54 45.3191C341.54 46.4837 340.666 47.357 339.5 47.357C338.334 47.357 337.46 46.4837 337.46 45.3191C337.46 44.1546 338.334 43.2812 339.5 43.2812C340.569 43.2812 341.54 44.1546 341.54 45.3191Z" fill="white"/>
<path d="M358.93 45.3191C358.93 46.4837 358.055 47.357 356.89 47.357C355.724 47.357 354.85 46.4837 354.85 45.3191C354.85 44.1546 355.724 43.2812 356.89 43.2812C358.055 43.2812 358.93 44.1546 358.93 45.3191Z" fill="white"/>
<path d="M376.222 45.3191C376.222 46.4837 375.347 47.357 374.182 47.357C373.016 47.357 372.142 46.4837 372.142 45.3191C372.142 44.1546 373.016 43.2812 374.182 43.2812C375.347 43.2812 376.222 44.1546 376.222 45.3191Z" fill="white"/>
<path d="M393.61 45.3191C393.61 46.4837 392.736 47.357 391.57 47.357C390.405 47.357 389.53 46.4837 389.53 45.3191C389.53 44.1546 390.405 43.2812 391.57 43.2812C392.736 43.2812 393.61 44.1546 393.61 45.3191Z" fill="white"/>
<path d="M411 45.3191C411 46.4837 410.126 47.357 408.96 47.357C407.794 47.357 406.92 46.4837 406.92 45.3191C406.92 44.1546 407.794 43.2812 408.96 43.2812C410.029 43.2812 411 44.1546 411 45.3191Z" fill="white"/>
<path d="M272.08 2.03789C272.08 3.2024 271.206 4.07579 270.04 4.07579C268.874 4.07579 268 3.2024 268 2.03789C268 0.873382 268.874 0 270.04 0C271.206 0 272.08 0.873382 272.08 2.03789Z" fill="white"/>
<path d="M289.47 2.03789C289.47 3.2024 288.595 4.07579 287.43 4.07579C286.264 4.07579 285.39 3.2024 285.39 2.03789C285.39 0.873382 286.264 0 287.43 0C288.498 0 289.47 0.873382 289.47 2.03789Z" fill="white"/>
<path d="M306.762 2.03789C306.762 3.2024 305.887 4.07579 304.722 4.07579C303.556 4.07579 302.682 3.2024 302.682 2.03789C302.682 0.873382 303.653 0 304.722 0C305.887 0 306.762 0.873382 306.762 2.03789Z" fill="white"/>
<path d="M324.15 2.03789C324.15 3.2024 323.276 4.07579 322.11 4.07579C320.945 4.07579 320.07 3.2024 320.07 2.03789C320.07 0.873382 321.042 0 322.11 0C323.179 0 324.15 0.873382 324.15 2.03789Z" fill="white"/>
<path d="M341.54 2.03789C341.54 3.2024 340.666 4.07579 339.5 4.07579C338.334 4.07579 337.46 3.2024 337.46 2.03789C337.46 0.873382 338.334 0 339.5 0C340.569 0 341.54 0.873382 341.54 2.03789Z" fill="white"/>
<path d="M358.93 2.03789C358.93 3.2024 358.055 4.07579 356.89 4.07579C355.724 4.07579 354.85 3.2024 354.85 2.03789C354.85 0.873382 355.724 0 356.89 0C358.055 0 358.93 0.873382 358.93 2.03789Z" fill="white"/>
<path d="M376.222 2.03789C376.222 3.2024 375.347 4.07579 374.182 4.07579C373.016 4.07579 372.142 3.2024 372.142 2.03789C372.142 0.873382 373.016 0 374.182 0C375.347 0 376.222 0.873382 376.222 2.03789Z" fill="white"/>
<path d="M393.61 2.03789C393.61 3.2024 392.736 4.07579 391.57 4.07579C390.405 4.07579 389.53 3.2024 389.53 2.03789C389.53 0.873382 390.405 0 391.57 0C392.736 0 393.61 0.873382 393.61 2.03789Z" fill="white"/>
<path d="M411 2.03789C411 3.2024 410.126 4.07579 408.96 4.07579C407.794 4.07579 406.92 3.2024 406.92 2.03789C406.92 0.873382 407.794 0 408.96 0C410.029 0 411 0.873382 411 2.03789Z" fill="white"/>
<path d="M272.08 16.4969C272.08 17.6614 271.206 18.5348 270.04 18.5348C268.874 18.5348 268 17.5643 268 16.4969C268 15.3324 268.874 14.459 270.04 14.459C271.206 14.459 272.08 15.3324 272.08 16.4969Z" fill="white"/>
<path d="M289.47 16.4969C289.47 17.6614 288.595 18.5348 287.43 18.5348C286.264 18.5348 285.39 17.6614 285.39 16.4969C285.39 15.3324 286.264 14.459 287.43 14.459C288.498 14.459 289.47 15.3324 289.47 16.4969Z" fill="white"/>
<path d="M306.762 16.4969C306.762 17.6614 305.887 18.5348 304.722 18.5348C303.556 18.5348 302.682 17.6614 302.682 16.4969C302.682 15.3324 303.556 14.459 304.722 14.459C305.887 14.459 306.762 15.3324 306.762 16.4969Z" fill="white"/>
<path d="M324.15 16.4969C324.15 17.6614 323.276 18.5348 322.11 18.5348C320.945 18.5348 320.07 17.6614 320.07 16.4969C320.07 15.3324 320.945 14.459 322.11 14.459C323.276 14.459 324.15 15.3324 324.15 16.4969Z" fill="white"/>
<path d="M341.54 16.4969C341.54 17.6614 340.666 18.5348 339.5 18.5348C338.334 18.5348 337.46 17.6614 337.46 16.4969C337.46 15.3324 338.334 14.459 339.5 14.459C340.569 14.459 341.54 15.3324 341.54 16.4969Z" fill="white"/>
<path d="M358.93 16.4969C358.93 17.6614 358.055 18.5348 356.89 18.5348C355.724 18.5348 354.85 17.6614 354.85 16.4969C354.85 15.3324 355.724 14.459 356.89 14.459C358.055 14.459 358.93 15.3324 358.93 16.4969Z" fill="white"/>
<path d="M376.222 16.4969C376.222 17.6614 375.347 18.5348 374.182 18.5348C373.016 18.5348 372.142 17.6614 372.142 16.4969C372.142 15.3324 373.016 14.459 374.182 14.459C375.347 14.459 376.222 15.3324 376.222 16.4969Z" fill="white"/>
<path d="M393.61 16.4969C393.61 17.6614 392.736 18.5348 391.57 18.5348C390.405 18.5348 389.53 17.6614 389.53 16.4969C389.53 15.3324 390.405 14.459 391.57 14.459C392.736 14.459 393.61 15.3324 393.61 16.4969Z" fill="white"/>
<path d="M411 16.4969C411 17.6614 410.126 18.5348 408.96 18.5348C407.794 18.5348 406.92 17.6614 406.92 16.4969C406.92 15.3324 407.794 14.459 408.96 14.459C410.029 14.459 411 15.3324 411 16.4969Z" fill="white"/>
<path d="M272.08 59.6805C272.08 60.845 271.206 61.7184 270.04 61.7184C268.874 61.7184 268 60.845 268 59.6805C268 58.516 268.874 57.6426 270.04 57.6426C271.206 57.6426 272.08 58.613 272.08 59.6805Z" fill="white"/>
<path d="M289.47 59.6805C289.47 60.845 288.595 61.7184 287.43 61.7184C286.264 61.7184 285.39 60.845 285.39 59.6805C285.39 58.516 286.264 57.6426 287.43 57.6426C288.498 57.6426 289.47 58.613 289.47 59.6805Z" fill="white"/>
<path d="M306.762 59.6805C306.762 60.845 305.887 61.7184 304.722 61.7184C303.556 61.7184 302.682 60.845 302.682 59.6805C302.682 58.516 303.556 57.6426 304.722 57.6426C305.887 57.6426 306.762 58.613 306.762 59.6805Z" fill="white"/>
<path d="M324.15 59.6805C324.15 60.845 323.276 61.7184 322.11 61.7184C320.945 61.7184 320.07 60.845 320.07 59.6805C320.07 58.516 320.945 57.6426 322.11 57.6426C323.276 57.6426 324.15 58.613 324.15 59.6805Z" fill="white"/>
<path d="M341.54 59.6805C341.54 60.845 340.666 61.7184 339.5 61.7184C338.334 61.7184 337.46 60.845 337.46 59.6805C337.46 58.516 338.334 57.6426 339.5 57.6426C340.569 57.6426 341.54 58.613 341.54 59.6805Z" fill="white"/>
<path d="M358.93 59.6805C358.93 60.845 358.055 61.7184 356.89 61.7184C355.724 61.7184 354.85 60.845 354.85 59.6805C354.85 58.516 355.724 57.6426 356.89 57.6426C358.055 57.6426 358.93 58.613 358.93 59.6805Z" fill="white"/>
<path d="M376.222 59.6805C376.222 60.845 375.347 61.7184 374.182 61.7184C373.016 61.7184 372.142 60.845 372.142 59.6805C372.142 58.516 373.016 57.6426 374.182 57.6426C375.347 57.6426 376.222 58.613 376.222 59.6805Z" fill="white"/>
<path d="M393.61 59.6805C393.61 60.845 392.736 61.7184 391.57 61.7184C390.405 61.7184 389.53 60.845 389.53 59.6805C389.53 58.516 390.405 57.6426 391.57 57.6426C392.736 57.6426 393.61 58.613 393.61 59.6805Z" fill="white"/>
<path d="M411 59.6805C411 60.845 410.126 61.7184 408.96 61.7184C407.794 61.7184 406.92 60.845 406.92 59.6805C406.92 58.516 407.794 57.6426 408.96 57.6426C410.029 57.6426 411 58.613 411 59.6805Z" fill="white"/>
<path d="M272.08 74.1395C272.08 75.304 271.206 76.1773 270.04 76.1773C268.874 76.1773 268 75.304 268 74.1395C268 72.9749 268.874 72.1016 270.04 72.1016C271.206 72.1016 272.08 72.9749 272.08 74.1395Z" fill="white"/>
<path d="M289.47 74.1395C289.47 75.304 288.595 76.1773 287.43 76.1773C286.264 76.1773 285.39 75.304 285.39 74.1395C285.39 72.9749 286.264 72.1016 287.43 72.1016C288.498 72.1016 289.47 72.9749 289.47 74.1395Z" fill="white"/>
<path d="M306.762 74.1395C306.762 75.304 305.887 76.1773 304.722 76.1773C303.556 76.1773 302.682 75.304 302.682 74.1395C302.682 72.9749 303.556 72.1016 304.722 72.1016C305.887 72.1016 306.762 72.9749 306.762 74.1395Z" fill="white"/>
<path d="M322.11 76.1773C323.237 76.1773 324.15 75.265 324.15 74.1395C324.15 73.014 323.237 72.1016 322.11 72.1016C320.984 72.1016 320.07 73.014 320.07 74.1395C320.07 75.265 320.984 76.1773 322.11 76.1773Z" fill="white"/>
<path d="M341.54 74.1395C341.54 75.304 340.666 76.1773 339.5 76.1773C338.334 76.1773 337.46 75.304 337.46 74.1395C337.46 72.9749 338.334 72.1016 339.5 72.1016C340.569 72.1016 341.54 72.9749 341.54 74.1395Z" fill="white"/>
<path d="M358.93 74.1395C358.93 75.304 358.055 76.1773 356.89 76.1773C355.724 76.1773 354.85 75.304 354.85 74.1395C354.85 72.9749 355.724 72.1016 356.89 72.1016C358.055 72.1016 358.93 72.9749 358.93 74.1395Z" fill="white"/>
<path d="M376.222 74.1395C376.222 75.304 375.347 76.1773 374.182 76.1773C373.016 76.1773 372.142 75.304 372.142 74.1395C372.142 72.9749 373.016 72.1016 374.182 72.1016C375.347 72.1016 376.222 72.9749 376.222 74.1395Z" fill="white"/>
<path d="M391.57 76.1773C392.697 76.1773 393.61 75.265 393.61 74.1395C393.61 73.014 392.697 72.1016 391.57 72.1016C390.444 72.1016 389.53 73.014 389.53 74.1395C389.53 75.265 390.444 76.1773 391.57 76.1773Z" fill="white"/>
<path d="M411 74.1395C411 75.304 410.126 76.1773 408.96 76.1773C407.794 76.1773 406.92 75.304 406.92 74.1395C406.92 72.9749 407.794 72.1016 408.96 72.1016C410.029 72.1016 411 72.9749 411 74.1395Z" fill="white"/>
<path d="M272.08 88.6004C272.08 89.7649 271.206 90.6383 270.04 90.6383C268.874 90.6383 268 89.7649 268 88.6004C268 87.4359 268.874 86.5625 270.04 86.5625C271.206 86.5625 272.08 87.4359 272.08 88.6004Z" fill="white"/>
<path d="M289.47 88.6004C289.47 89.7649 288.595 90.6383 287.43 90.6383C286.264 90.6383 285.39 89.7649 285.39 88.6004C285.39 87.4359 286.264 86.5625 287.43 86.5625C288.498 86.5625 289.47 87.4359 289.47 88.6004Z" fill="white"/>
<path d="M306.762 88.6004C306.762 89.7649 305.887 90.6383 304.722 90.6383C303.556 90.6383 302.682 89.7649 302.682 88.6004C302.682 87.4359 303.556 86.5625 304.722 86.5625C305.887 86.5625 306.762 87.4359 306.762 88.6004Z" fill="white"/>
<path d="M324.15 88.6004C324.15 89.7649 323.276 90.6383 322.11 90.6383C320.945 90.6383 320.07 89.7649 320.07 88.6004C320.07 87.4359 320.945 86.5625 322.11 86.5625C323.276 86.5625 324.15 87.4359 324.15 88.6004Z" fill="white"/>
<path d="M341.54 88.6004C341.54 89.7649 340.666 90.6383 339.5 90.6383C338.334 90.6383 337.46 89.7649 337.46 88.6004C337.46 87.4359 338.334 86.5625 339.5 86.5625C340.569 86.5625 341.54 87.4359 341.54 88.6004Z" fill="white"/>
<path d="M358.93 88.6004C358.93 89.7649 358.055 90.6383 356.89 90.6383C355.724 90.6383 354.85 89.7649 354.85 88.6004C354.85 87.4359 355.724 86.5625 356.89 86.5625C358.055 86.5625 358.93 87.4359 358.93 88.6004Z" fill="white"/>
<path d="M376.222 88.6004C376.222 89.7649 375.347 90.6383 374.182 90.6383C373.016 90.6383 372.142 89.7649 372.142 88.6004C372.142 87.4359 373.016 86.5625 374.182 86.5625C375.347 86.5625 376.222 87.4359 376.222 88.6004Z" fill="white"/>
<path d="M393.61 88.6004C393.61 89.7649 392.736 90.6383 391.57 90.6383C390.405 90.6383 389.53 89.7649 389.53 88.6004C389.53 87.4359 390.405 86.5625 391.57 86.5625C392.736 86.5625 393.61 87.4359 393.61 88.6004Z" fill="white"/>
<path d="M411 88.6004C411 89.7649 410.126 90.6383 408.96 90.6383C407.794 90.6383 406.92 89.7649 406.92 88.6004C406.92 87.4359 407.794 86.5625 408.96 86.5625C410.029 86.5625 411 87.4359 411 88.6004Z" fill="white"/>
<path d="M272.08 102.962C272.08 104.126 271.206 105 270.04 105C268.874 105 268 104.126 268 102.962C268 101.797 268.874 100.924 270.04 100.924C271.206 100.924 272.08 101.894 272.08 102.962Z" fill="white"/>
<path d="M289.47 102.962C289.47 104.126 288.595 105 287.43 105C286.264 105 285.39 104.126 285.39 102.962C285.39 101.797 286.264 100.924 287.43 100.924C288.498 100.924 289.47 101.894 289.47 102.962Z" fill="white"/>
<path d="M306.762 102.962C306.762 104.126 305.887 105 304.722 105C303.556 105 302.682 104.126 302.682 102.962C302.682 101.797 303.556 100.924 304.722 100.924C305.887 100.924 306.762 101.894 306.762 102.962Z" fill="white"/>
<path d="M324.15 102.962C324.15 104.126 323.276 105 322.11 105C320.945 105 320.07 104.126 320.07 102.962C320.07 101.797 320.945 100.924 322.11 100.924C323.276 100.924 324.15 101.894 324.15 102.962Z" fill="white"/>
<path d="M341.54 102.962C341.54 104.126 340.666 105 339.5 105C338.334 105 337.46 104.126 337.46 102.962C337.46 101.797 338.334 100.924 339.5 100.924C340.569 100.924 341.54 101.894 341.54 102.962Z" fill="white"/>
<path d="M358.93 102.962C358.93 104.126 358.055 105 356.89 105C355.724 105 354.85 104.126 354.85 102.962C354.85 101.797 355.724 100.924 356.89 100.924C358.055 100.924 358.93 101.894 358.93 102.962Z" fill="white"/>
<path d="M376.222 102.962C376.222 104.126 375.347 105 374.182 105C373.016 105 372.142 104.126 372.142 102.962C372.142 101.797 373.016 100.924 374.182 100.924C375.347 100.924 376.222 101.894 376.222 102.962Z" fill="white"/>
<path d="M393.61 102.962C393.61 104.126 392.736 105 391.57 105C390.405 105 389.53 104.126 389.53 102.962C389.53 101.797 390.405 100.924 391.57 100.924C392.736 100.924 393.61 101.894 393.61 102.962Z" fill="white"/>
<path d="M411 102.962C411 104.126 410.126 105 408.96 105C407.794 105 406.92 104.126 406.92 102.962C406.92 101.797 407.794 100.924 408.96 100.924C410.029 100.924 411 101.894 411 102.962Z" fill="white"/>
<g opacity="0.6">
<path d="M78.8238 666.717L89.9995 666.717L89.9995 637L60.2822 637L60.2822 648.091L78.8238 648.091L78.8238 666.717Z" fill="white"/>
<path d="M58.7593 686.782L69.8504 686.782L69.8504 657.064L40.2178 657.064L40.2178 668.24L58.7593 668.24L58.7593 686.782Z" fill="white"/>
<path d="M38.606 706.849L49.7818 706.849L49.7818 677.217L20.0645 677.217L20.0645 688.308L38.606 688.308L38.606 706.849Z" fill="white"/>
<path d="M18.5416 726.999L29.7173 726.999L29.7173 697.281L0 697.281L-5.86103e-07 708.457L18.5416 708.457L18.5416 726.999Z" fill="white"/>
</g>
<path d="M1832.09 40C1760.73 40 1703 97.7268 1703 169.089C1703 240.273 1760.73 298.177 1832.09 298.177C1903.27 298.177 1961.18 240.45 1961.18 169.089C1961 97.7268 1903.27 40 1832.09 40ZM1832.09 289.855C1765.33 289.855 1711.32 235.846 1711.32 169.089C1711.32 102.331 1765.33 48.3226 1832.09 48.3226C1898.85 48.3226 1952.85 102.331 1952.85 169.089C1952.85 235.669 1898.67 289.855 1832.09 289.855Z" fill="white"/>
<path d="M1832.09 67.8008C1776.31 67.8008 1730.98 113.132 1730.98 168.911C1730.98 224.69 1776.31 270.022 1832.09 270.022C1887.87 270.022 1933.2 224.867 1933.2 169.088C1933.2 113.132 1887.87 67.8008 1832.09 67.8008ZM1832.09 254.616C1784.81 254.616 1746.38 216.191 1746.38 168.911C1746.38 121.632 1784.81 83.2064 1832.09 83.2064C1879.37 83.2064 1917.79 121.632 1917.79 168.911C1917.79 216.191 1879.37 254.616 1832.09 254.616Z" fill="white"/>
</g>
</svg>
